<?xml version="1.0" encoding="utf-8"?>
<!-- Generator: Adobe Illustrator 24.0.0, SVG Export Plug-In . SVG Version: 6.00 Build 0)  -->
<svg version="1.1" id="Capa_1" xmlns="http://www.w3.org/2000/svg" xmlns:xlink="http://www.w3.org/1999/xlink" x="0px" y="0px"
	 viewBox="0 0 724.97 196.99" style="enable-background:new 0 0 724.97 196.99;" xml:space="preserve">
<style type="text/css">
	.st0{fill-rule:evenodd;clip-rule:evenodd;fill:#2B5794;}
	.st1{fill-rule:evenodd;clip-rule:evenodd;fill:url(#SVGID_1_);}
</style>
<g>
	<path class="st0" d="M355.59,128.68h27.1v-61.6h24.45V50.89h-24.45h-10.04h-3.51c-7.45,0-13.55,6.1-13.55,13.55V128.68
		L355.59,128.68z"/>
	<polygon class="st0" points="414.72,50.19 442.52,50.19 442.52,129.38 414.72,129.38 414.72,50.19 	"/>
	<polygon class="st0" points="414.72,40.69 442.52,40.69 442.52,24.14 414.72,24.14 414.72,40.69 	"/>
	<path class="st0" d="M463.28,129.38h46.29c7.26,0,13.2-5.94,13.2-13.2V62.86c0-7.26-5.94-13.2-13.2-13.2h-46.29
		c-7.26,0-13.2,5.94-13.2,13.2v53.33C450.09,123.44,456.02,129.38,463.28,129.38L463.28,129.38z M478.24,111.26h16.37V67.79h-16.37
		V111.26L478.24,111.26z"/>
	<path class="st0" d="M526.99,50.19h8.8l11.44-25.34h13.9v25.34h16.19v17.6h-16.19v43.56h16.89v17.6h-16.89h-12.5h-0.17
		c-6.97,0-12.67-5.7-12.67-12.67V67.79h-8.8V50.19L526.99,50.19z"/>
	<path class="st0" d="M656.87,97.71V60.4c0-5.23-4.28-9.5-9.5-9.5h-51.39c-5.42,0-9.86,4.43-9.86,9.86v58.07
		c0,5.81,4.75,10.56,10.56,10.56h60.19v-16.19h-47.52V97.71H656.87z M608.47,81.52V67.79h28.33v13.73H608.47z"/>
	<path class="st0" d="M677.98,48.52h13.11h33.88v18.3h-33.88v45.05h33.88v18.3h-33.88h-13.11h-1.75c-6.3,0-11.45-5.15-11.45-11.45
		V61.67c0-7.24,5.92-13.16,13.16-13.16H677.98L677.98,48.52z"/>
	<path class="st0" d="M21.66,84.07c7.04,18.27,50.17,88.48,196.77,42.51c-57.7,17.25-134.45,5.7-154.72-8.39
		C42.71,103.59,36.29,91.4,33.82,78.44c-3.88-20.37,8.21-43.09,27.35-64.32C42.9,23.76,28.61,34.53,18.45,46.47
		C16.78,55.83,16.1,69.65,21.66,84.07z"/>
	<linearGradient id="SVGID_1_" gradientUnits="userSpaceOnUse" x1="9.094947e-13" y1="121.7285" x2="225.8928" y2="121.7285">
		<stop  offset="0" style="stop-color:#76AADB"/>
		<stop  offset="1" style="stop-color:#2B5794"/>
	</linearGradient>
	<path class="st1" d="M21.66,84.07c-5.56-14.41-4.88-28.24-3.21-37.6C0,68.11-4.84,93.58,4.96,123.18
		c20.59,56,94.85,95.65,220.93,60.58l-1.41-59.13c-1.99,0.68-4.02,1.33-6.06,1.94C71.82,172.55,28.7,102.34,21.66,84.07z"/>
	<path class="st0" d="M192.1,47.9c14.9-2.82,35.78-39.07,32.03-46.46c0,0-38.38-3.47-90.1,0.35s-75.19,32.1-81.3,63
		C94.74,41.95,135.15,44.51,192.1,47.9z"/>
	<path class="st0" d="M348.2,113.19h-36.25V39.98h27.1c5.03,0,9.15-4.12,9.15-9.15v-9.15h-36.25h-19.71h-8.17
		c-2.09,0-3.8,1.71-3.8,3.8v102.21c0,2.09,1.71,3.8,3.8,3.8h17.32h10.56h36.25V113.19L348.2,113.19z"/>
</g>
</svg>
