<?xml version="1.0" encoding="UTF-8"?>
<svg xmlns="http://www.w3.org/2000/svg" version="1.1" viewBox="0 0 148.1 29.5">
  <defs>
    <style>
      .cls-1 {
        fill: #004b96;
      }

      .cls-2 {
        fill: #00b4be;
      }
    </style>
  </defs>
  <!-- Generator: Adobe Illustrator 28.7.1, SVG Export Plug-In . SVG Version: 1.2.0 Build 142)  -->
  <g>
    <g id="Layer_2">
      <g>
        <path class="cls-1" d="M51,6.2c-.2,0-.3,0-.4.2-1.6,3.6-3.3,7.1-4.9,10.7-.1.3-.6.3-.7,0-1.2-3.5-2.4-7.1-3.6-10.6,0-.2-.2-.3-.4-.3h-5.4c-.3,0-.4,0-.4.4-.5,5.5-1,10.9-1.6,16.3,0,.3,0,.4.4.4h3.3c.3,0,.4-.1.4-.4.2-3.4.5-6.7.8-10.1,0-.4.6-.5.7,0,1.1,3.4,2.3,6.9,3.4,10.3,0,.2.2.3.4.3h3.8c.2,0,.3,0,.4-.2,1.5-3.5,3-6.9,4.6-10.4.2-.4.7-.3.7.2,0,3.3-.2,6.7-.2,10,0,.3.1.4.4.4h3.4c.3,0,.4-.1.4-.4,0-5.4,0-10.9.3-16.3,0-.3-.1-.4-.4-.4h-5.4,0Z"/>
        <path class="cls-1" d="M99.9,6.2c-.3,0-.4.1-.4.4-.1,5.5-.4,10.9-.9,16.3,0,.3,0,.4.4.4h3.8c.3,0,.4-.1.4-.4.2-5.5.5-10.9.9-16.3,0-.3,0-.4-.4-.4h-3.8,0Z"/>
        <path class="cls-1" d="M126.4,10.6c-.3,0-.4.1-.4.4-.1,4-.3,8-.7,12,0,.3,0,.4.4.4h3.8c.3,0,.4-.1.4-.4.1-4,.3-8,.5-12,0-.3,0-.4-.4-.4h-3.7Z"/>
        <path class="cls-1" d="M126.5,6.1c-.3,0-.4.1-.4.4,0,.7,0,1.3,0,2,0,.3.1.4.4.4h3.8c.3,0,.4-.1.4-.4,0-.7,0-1.3.1-2,0-.3,0-.4-.4-.4h-3.8Z"/>
        <path class="cls-1" d="M107.1,6.9c-.6.8-.7,1.8-.8,3.2,0,1.3-.2,3-.8,12.8,0,.3,0,.4.4.4h3.8c.3,0,.4-.1.4-.4.2-4.8.3-7.6.3-9.3,0-.3.1-.4.4-.4h2.8c.3,0,.4-.1.4-.4,0-.7,0-1.3,0-2,0-.3-.1-.4-.4-.4h-2.8c-.3,0-.4-.1-.4-.4,0-.7.2-1.1.5-1.4.4-.4,1.1-.6,2.5-.3.3,0,.6.1,1,.3.2,0,.5-.1.5-.4,0-.7,0-1.3,0-2,0-.2,0-.3-.3-.4-1.3-.2-2.4-.3-3.3-.3h-.1c-2.2,0-3.4.5-4,1.3h0Z"/>
        <path class="cls-1" d="M120.1,11.2c-.3.2-.6,0-.6-.3v-.3h-3.9c-.3,0-.4.1-.4.4,0,4-.1,8-.5,12,0,.3,0,.4.4.4h3.7c.3,0,.4-.1.4-.4,0-2.1-.1-4.3.3-6.4.5-2.4,2.4-3.6,4.8-3,.2,0,.5-.1.5-.4v-2.5c0-.2-.1-.3-.3-.4-.4,0-.8-.1-1.1-.1-1.1,0-2.2.3-3.1,1h0Z"/>
        <path class="cls-1" d="M78.1,7.6c-1.1.2-2.3.4-3.4.6-.2,0-.3.1-.3.4-.7,9.4-.9,10.9-.8,12,0,1.1.4,1.8,1,2.3.6.5,1.4.7,2.9.8.8,0,1.8,0,3.6-.3.2,0,.3-.1.3-.3l.3-2.2c0-.3-.2-.5-.4-.4-1.8.3-2.4.2-2.7,0-.5-.4-.5-1-.5-1.9,0-.6,0-1.3.3-4.8,0-.3.1-.4.4-.4h3c.3,0,.4-.1.4-.4,0-.7,0-1.3,0-2s-.1-.4-.4-.4h-2.8c-.3,0-.4-.1-.4-.4,0-.7,0-1.4.1-2.2,0-.2-.2-.4-.4-.4s0,0,0,0h0Z"/>
        <path class="cls-1" d="M63.1,14.3c.7-1.3,2.2-1.3,3.1-1.2,1.1.1,1.4.6,1.7,1.1,0,0,0,.1,0,.2,0,.2-.1.5-.4.5h-4.1c-.3,0-.5-.3-.3-.6M62.8,10.5c-2,.5-3.6,1.6-4.5,3.3-.9,1.7-1,4-.4,5.8.7,1.8,2.2,3.2,5,3.7,2.1.4,4.9.4,7.6-.2.2,0,.3-.1.3-.3.1-.8.3-1.5.4-2.3,0-.3-.2-.5-.5-.4-3.1.9-4.4,1-5.8.6-1.5-.4-2.9-1.2-3-3.1,0-.3,0-.4.4-.4h9.8c.2,0,.3,0,.4-.3.7-3.5-1.1-5.2-3.2-6.1-1.2-.5-2.5-.7-3.8-.7s-1.9.1-2.8.4h0Z"/>
        <path class="cls-1" d="M84.9,10.9c-.2,0-.3.1-.3.3-.1.7-.3,1.3-.4,2,0,.3.2.5.5.4,2.8-.9,4.8-1,6-.9,1.3.1,1.7.5,1.8.9,0,.4,0,.8-.7,1.1-.6.3-1.6.5-3,.8-1.3.3-2.9.6-4.1,1.1-1.2.5-1.9,1.2-2.3,2.1-.3.9-.3,2.2.3,3.1.5.9,1.5,1.5,2.5,1.7s2,.2,3.3.2c.5,0,1,0,1.7-.2.2,0,.2-.1.3-.3.2-.6.4-1.2.6-1.8,0-.3-.2-.6-.5-.5-2.4.6-3.3.3-3.8-.3-.5-.5-.4-1.2.3-1.8.8-.5,2.3-.9,3.8-1.3.3,0,.6-.2.9-.3.3,0,.5.1.5.4-.1,1.8-.3,3.5-.4,5.3,0,.3,0,.4.4.4h3.7c.3,0,.4-.1.4-.4,0-.7,0-1.3,0-1.9.1-2,.2-3.5.3-4.8s.3-2.6,0-3.5c-.3-1-1.1-1.8-3.1-2.2-.8-.2-1.8-.3-3-.3s-3.5.2-5.8.7h0Z"/>
        <path class="cls-1" d="M139.2,20.7c-2.3-.4-3.3-2.2-2.9-4.4.4-2.2,2-3.6,4.3-3.2,2.3.4,3.3,2.2,2.9,4.4-.4,2-1.7,3.3-3.6,3.3s-.5,0-.7,0M139.9,10.2c-4.1,0-8.2,2-8.3,6.7,0,4.8,4,6.7,8.2,6.7,4.2,0,8.2-2,8.3-6.7,0-4.8-3.9-6.7-8.1-6.7h0Z"/>
        <path class="cls-2" d="M10,15.7c-1.6.9-3.2,1.8-4.7,2.7-.1,0-.2,0-.4,0-1.1-.6-2.1-1.2-3.2-1.9-.5-.3-1.2-.1-1.5.4-.3.5-.1,1.2.4,1.5,1.3.7,2.6,1.5,3.9,2.2.1,0,.2.2.2.3v4.5c0,.6.5,1.1,1.1,1.1s1.1-.5,1.1-1.1v-3.7c0-.2,0-.3.2-.3,1.6-.9,3.2-1.8,4.7-2.7.9-.5,1.2-1.6.7-2.5-.3-.6-.9-.9-1.6-.9s-.6,0-.9.2h0Z"/>
        <path class="cls-2" d="M4.6,3.9v4.5c0,.2,0,.3-.2.3-1.3.7-2.6,1.5-3.9,2.2-.5.3-.7,1-.4,1.5.3.5,1,.7,1.5.4,1.1-.6,2.2-1.2,3.2-1.9.1,0,.2,0,.4,0,1.6.9,3.2,1.8,4.7,2.7.9.5,2,.2,2.5-.7s.2-2-.7-2.5c-1.6-.9-3.2-1.8-4.7-2.7-.1,0-.2-.2-.2-.3v-3.7c0-.6-.5-1.1-1.1-1.1s-1.1.5-1.1,1.1h0Z"/>
        <path class="cls-2" d="M13.5,19.8v5.5c0,.2,0,.3-.2.3-1.1.6-2.2,1.2-3.2,1.9-.5.3-.7,1-.4,1.5.3.5,1,.7,1.5.4,1.3-.7,2.6-1.5,3.9-2.2.1,0,.2,0,.4,0,1.3.7,2.6,1.5,3.9,2.2.5.3,1.2.1,1.5-.4.3-.5.1-1.2-.4-1.5-1.1-.6-2.2-1.2-3.2-1.9-.1,0-.2-.2-.2-.3v-5.5c0-1-.8-1.8-1.8-1.8s-1.8.8-1.8,1.8h0Z"/>
        <path class="cls-2" d="M19.3.2c-1.3.7-2.6,1.5-3.9,2.2-.1,0-.2,0-.4,0-1.3-.7-2.6-1.5-3.9-2.2-.5-.3-1.2-.1-1.5.4-.3.5-.1,1.2.4,1.5,1.1.6,2.1,1.2,3.2,1.9.1,0,.2.2.2.3v5.5c0,1,.8,1.8,1.8,1.8s1.8-.8,1.8-1.8v-5.5c0-.2,0-.3.2-.3,1.1-.6,2.2-1.2,3.2-1.9.5-.3.7-1,.4-1.5-.2-.4-.6-.6-1-.6s-.4,0-.6.2h0Z"/>
        <path class="cls-2" d="M18.1,16.4c-.5.9-.2,2,.7,2.5,1.6.9,3.2,1.8,4.7,2.7.1,0,.2.2.2.3v3.7c0,.6.5,1.1,1.1,1.1s1.1-.5,1.1-1.1v-4.5c0-.2,0-.3.2-.3,1.3-.7,2.6-1.5,3.9-2.2.5-.3.7-1,.4-1.5-.3-.5-1-.7-1.5-.4-1.1.6-2.2,1.2-3.2,1.9-.1,0-.2,0-.4,0-1.6-.9-3.2-1.8-4.7-2.7-.3-.2-.6-.2-.9-.2-.6,0-1.2.3-1.6.9h0Z"/>
        <path class="cls-2" d="M23.6,3.9v3.7c0,.2,0,.3-.2.3-1.6.9-3.2,1.8-4.7,2.7-.9.5-1.2,1.6-.7,2.5.5.9,1.6,1.2,2.5.7,1.6-.9,3.2-1.8,4.7-2.7.1,0,.2,0,.4,0,1.1.6,2.2,1.2,3.2,1.9.5.3,1.2.1,1.5-.4.3-.5.1-1.2-.4-1.5-1.3-.7-2.6-1.5-3.9-2.2-.1,0-.2-.2-.2-.3V3.9c0-.6-.5-1.1-1.1-1.1s-1.1.5-1.1,1.1h0Z"/>
      </g>
    </g>
  </g>
</svg>