<svg id="LOGO-RHINO" xmlns="http://www.w3.org/2000/svg" xmlns:xlink="http://www.w3.org/1999/xlink" width="312.467" height="86" viewBox="0 0 312.467 86">
  <defs>
    <clipPath id="clip-path">
      <rect id="Rectangle_322" data-name="Rectangle 322" width="312.467" height="86" fill="none"/>
    </clipPath>
  </defs>
  <g id="Group_172" data-name="Group 172" clip-path="url(#clip-path)">
    <path id="Path_807" data-name="Path 807" d="M304.656,86H7.812A7.812,7.812,0,0,1,0,78.189V7.812A7.812,7.812,0,0,1,7.812,0H304.656a7.812,7.812,0,0,1,7.812,7.812V78.189A7.812,7.812,0,0,1,304.656,86" fill="#222423"/>
    <path id="Path_808" data-name="Path 808" d="M76.255,52.4a3.245,3.245,0,0,1-1.067-4.465l5.545,3.4A3.245,3.245,0,0,1,76.267,52.4ZM90.2,47.781l.6-6.884-3.386,3.088a5.18,5.18,0,0,1-6.078.67l-5.781-3.325-.124-.1V34.918a4.25,4.25,0,0,0-2.878,1.116,4.318,4.318,0,0,0-1.389,2.754l-7.095-4.056a5.6,5.6,0,0,0-4.2-.558l-13.917,3.6L36.066,83.418H46.82L59.336,69.439l11.511-5.768a14.269,14.269,0,0,0,1.4,1.054A13.921,13.921,0,0,0,79.6,66.834h12.3l3.883-1.922,1.092-.521L103,36.084,90.2,47.769Z" transform="translate(-18.178 -17.132)" fill="#f4f4f7"/>
    <path id="Path_809" data-name="Path 809" d="M208.333,53.8a5.832,5.832,0,0,1-2.233,3.622,7.472,7.472,0,0,1-4.478,1.253H193.2l2.084-9.687h8.4a5.355,5.355,0,0,1,3.969,1.228,3.8,3.8,0,0,1,.682,3.6Zm14.128-.943a14.7,14.7,0,0,0,.161-6.2,9.083,9.083,0,0,0-2.468-4.614,12.23,12.23,0,0,0-5.048-2.878,24.885,24.885,0,0,0-7.579-.98H183.7L173.465,85.507h13.954l3.523-16.4h3.548a4.764,4.764,0,0,1,1.451.186,2.039,2.039,0,0,1,.992.707,4.846,4.846,0,0,1,.732,1.426c.211.608.446,1.4.682,2.394L201.2,85.507h15.492l-2.716-11.734c-1.1-4.7-3.61-7.194-7.492-7.455a17.537,17.537,0,0,0,5.644-1.092,15.972,15.972,0,0,0,8.236-6.934,18.189,18.189,0,0,0,2.084-5.433Z" transform="translate(-87.43 -19.246)" fill="#ffb500"/>
    <path id="Path_810" data-name="Path 810" d="M303.665,38.611l-3.87,17.9H285.729l3.87-17.9H275.781L265.473,85.734H279.4l3.845-17.8h14.066l-3.845,17.8H307.4l10.2-47.123Z" transform="translate(-133.804 -19.461)" fill="#ffb500"/>
    <path id="Path_811" data-name="Path 811" d="M375.342,38.411l-2.53,11.71,15.641-7.8.844-3.907Z" transform="translate(-187.905 -19.36)" fill="#ffb500"/>
    <path id="Path_812" data-name="Path 812" d="M357.207,91.318h13.917l9.1-41.628L363.3,63.434Z" transform="translate(-180.039 -25.045)" fill="#ffb500"/>
    <path id="Path_813" data-name="Path 813" d="M433.836,38.611l-6.537,30.2-5.445-30.2H402.627L392.32,85.734h13.235l7.12-32.9,5.855,32.9h18.234l10.32-47.123Z" transform="translate(-197.737 -19.461)" fill="#ffb500"/>
    <path id="Path_814" data-name="Path 814" d="M531.067,60.918c-.955,4.4-2.468,7.691-4.565,9.861a10.446,10.446,0,0,1-7.827,3.275q-4.67,0-6.413-3.275t-.3-9.861c.955-4.4,2.468-7.7,4.565-9.873a10.389,10.389,0,0,1,7.814-3.263q4.689,0,6.425,3.263t.3,9.873m14.761-7.033a21.552,21.552,0,0,0-.98-6.016,15.738,15.738,0,0,0-6.5-8.51,18.343,18.343,0,0,0-5.21-2.257,24.2,24.2,0,0,0-6.326-.769,29.335,29.335,0,0,0-6.661.769,28.433,28.433,0,0,0-11.709,5.892,29.746,29.746,0,0,0-4.639,4.875,31.687,31.687,0,0,0-3.584,6.016,33.887,33.887,0,0,0-2.32,7.033,29.783,29.783,0,0,0-.719,7.033,21.076,21.076,0,0,0,.992,6.016,16.3,16.3,0,0,0,2.53,4.874,15.735,15.735,0,0,0,3.945,3.635,18.174,18.174,0,0,0,5.21,2.257,24.744,24.744,0,0,0,6.326.782,28.493,28.493,0,0,0,18.383-6.673,29.271,29.271,0,0,0,4.639-4.874,31.682,31.682,0,0,0,3.573-6.016,33.129,33.129,0,0,0,2.319-7.033,29.723,29.723,0,0,0,.72-7.021Z" transform="translate(-250.586 -18.312)" fill="#ffb500"/>
    <path id="Path_815" data-name="Path 815" d="M599.631,40.219h-1.3V38.4h1.439a.984.984,0,0,1,.723.238.881.881,0,0,1,.239.655,1.04,1.04,0,0,1-.119.509.86.86,0,0,1-.342.32,1.607,1.607,0,0,1-.639.1m-.151-3.887a4.21,4.21,0,1,0,4.2,4.213,4.217,4.217,0,0,0-4.2-4.213m2.226,6.933h0l-.764-1.462a4.427,4.427,0,0,0-.472-.71,1.481,1.481,0,0,0-.39-.3,1.516,1.516,0,0,0,.945-.5,1.477,1.477,0,0,0,.332-1.012,1.75,1.75,0,0,0-.191-.835,1.179,1.179,0,0,0-.5-.514,2.119,2.119,0,0,0-.931-.158h-2V43.3h.592V40.852h.7a1.107,1.107,0,0,1,.467.079,1.053,1.053,0,0,1,.351.314,8.4,8.4,0,0,1,.526.91l.613,1.144h.68a3.459,3.459,0,0,1-2.184.775,3.576,3.576,0,1,1,2.226-.81" transform="translate(-300.025 -18.312)" fill="#ffb500"/>
    <path id="Path_816" data-name="Path 816" d="M83.458,104.3l1.55,9.948h15.8c-.72-2.108-3.585-10.481-6.177-19.09Z" transform="translate(-42.064 -47.961)" fill="#f4f4f7"/>
  </g>
</svg>
