<?xml version="1.0" encoding="UTF-8"?>
<svg id="Layer_2" data-name="Layer 2" xmlns="http://www.w3.org/2000/svg" xmlns:xlink="http://www.w3.org/1999/xlink" viewBox="0 0 942.61 560.32">
  <defs>
    <style>
      .cls-1 {
        fill: #0699bc;
      }

      .cls-2 {
        fill: #b7b8ba;
      }

      .cls-3 {
        fill: url(#linear-gradient);
      }
    </style>
    <linearGradient id="linear-gradient" x1="64.42" y1="532.03" x2="885.67" y2="69.36" gradientTransform="translate(0 -6.82) scale(1 .96)" gradientUnits="userSpaceOnUse">
      <stop offset="0" stop-color="#0699bc"/>
      <stop offset=".17" stop-color="#55b9d1"/>
      <stop offset=".51" stop-color="#fff"/>
      <stop offset=".52" stop-color="#fefefe"/>
      <stop offset=".79" stop-color="#b7b8ba"/>
      <stop offset="1" stop-color="#c7c8c9"/>
    </linearGradient>
  </defs>
  <g id="Layer_1-2" data-name="Layer 1">
    <g>
      <path class="cls-3" d="m401.71,146.04c41.88-21.87,84.46-42.44,127.98-60.89,43.45-18.58,87.58-35.69,132.74-49.84,45.12-14.11,91.04-26.48,138.3-32.34,23.6-2.76,47.58-4.29,71.63-1.45,12,1.32,24.06,4.09,35.51,9.14,11.34,5.02,22.3,13.18,28.71,24.94,6.28,11.82,7.11,25.61,5.03,37.98-2.1,12.48-6.46,24.22-12.01,35.09-10.95,21.9-25.52,41.27-40.91,59.64-31.16,36.51-66.73,68.59-103.82,98.43-18.59,14.88-37.64,29.16-57.06,42.9-19.41,13.75-39.05,27.17-59.18,39.83-40.11,25.55-81.42,49.1-123.42,71.33-84.39,43.63-172.01,81.53-263.36,108.69-45.67,13.45-92.33,24.26-140.11,28.98-23.88,2.13-48.1,3.02-72.34-.52-12.09-1.66-24.22-4.79-35.67-10.2-11.35-5.37-22.2-13.93-28.32-25.85-5.99-11.99-6.43-25.66-4.07-37.84,2.4-12.29,7.02-23.77,12.79-34.37,11.41-21.37,26.38-40.17,42.13-57.96,31.83-35.43,68.21-66.06,105.59-95,37.42-28.96,76.68-55.41,116.76-80.44,40.01-25.17,81.23-48.35,123.1-70.23Zm-6.62,5.36c-82.11,43.33-161.43,92.47-233.97,150.39-36.12,29.03-70.68,60.28-100.63,95.4-14.77,17.63-28.67,36.22-38.79,56.54-5.15,10.08-9.03,20.77-10.81,31.53-1.77,10.73-.91,21.68,3.92,30.73,4.96,8.98,13.57,15.56,23.39,19.9,9.86,4.33,20.76,6.91,31.91,8.1,22.28,2.63,45.23,1.21,67.88-1.46,45.44-5.64,90.11-17.66,134.02-31.4,43.97-13.78,87.03-30.5,129.46-48.62,42.49-18.01,84.09-38.14,125.04-59.48,40.92-21.37,81.2-44.03,120.27-68.61,39.15-24.41,77.46-50.25,113.9-78.44,36.4-28.15,71.77-57.98,102.37-92.04,15.13-17.06,29.42-35.09,39.99-54.89,5.39-9.83,9.5-20.25,11.58-30.83,2.05-10.54,1.57-21.38-2.97-30.6-4.67-9.14-13.18-16.11-23-20.8-9.86-4.69-20.85-7.62-32.07-9.15-22.46-3.31-45.66-2.52-68.57-.47-45.94,4.51-91.34,15.01-135.8,28.09-88.98,26.44-174.63,63.46-257.11,106.08Z"/>
      <path class="cls-1" d="m642.27,167.37c-10.99,44.83-39.64,82.62-105.28,84.34-55.85,1.47-86.59-32.79-88.07-89.05-1.8-68.52,33.03-154.45,115.01-156.6,71.97-1.89,91.2,51.61,89.09,81.61l-56.63,1.49c-1.01-18.18-6.94-36.44-33.03-35.76-41.03,1.08-55.38,67.17-54.4,104.61.87,32.96,13.75,47.16,34.36,46.62,19.57-.51,32.52-12.37,40.76-35.73l58.19-1.53Z"/>
      <path class="cls-1" d="m195.48,155.37l55.46,92.07h-69.68l-54.04-94.21-11.38,94.21h-60.08L84.92,10.32h77.14c32.35,0,52.26,6.4,65.77,20.62,11.38,12.09,18.13,31.64,18.13,52.97s-6.4,39.1-19.2,52.61c-8.53,9.24-14.93,13.15-31.29,18.84Zm-56.52-97.41l-7.46,60.79h10.66c28.8,0,41.95-10.67,41.95-33.06,0-20.62-8.53-27.73-33.77-27.73h-11.38Z"/>
      <path class="cls-1" d="m431.86,10.32l-6.4,52.26h-69.68l-4.98,39.46h67.54l-6.4,51.9h-67.54l-4.98,41.24h72.52l-6.4,52.26h-132.6l29.15-237.12h129.76Z"/>
      <path class="cls-1" d="m878.66,141c-.34,1.36-.77,3.07-1.11,4.43-18.69,74.64-71.55,115-131.08,100.1-59.8-14.97-88.7-71.47-71.55-139.97,17.84-71.23,73.37-110.56,134.27-95.31,55.66,13.94,83.39,65.79,69.46,130.76Zm-49.57-5.53c7.31-36.2-6.54-63.93-35.47-71.18-31.42-7.87-61.12,13.67-70.5,51.16-9.39,37.49,5.05,67.54,35.91,75.27,31.42,7.87,59.76-12.92,69.31-51.09.34-1.36.68-2.73.75-4.16Z"/>
      <g>
        <path class="cls-2" d="m228.92,441.27c-10.99,44.83-39.64,82.62-105.28,84.34-55.85,1.47-86.59-32.79-88.07-89.05-1.8-68.52,33.03-154.45,115.01-156.6,71.97-1.89,91.2,51.61,89.09,81.61l-56.63,1.49c-1.01-18.18-6.94-36.44-33.03-35.76-41.03,1.08-55.38,67.17-54.4,104.61.87,32.96,13.75,47.16,34.36,46.62,19.57-.51,32.52-12.37,40.76-35.73l58.19-1.53Z"/>
        <path class="cls-2" d="m467.61,414.91c-.34,1.36-.77,3.07-1.11,4.43-18.69,74.64-71.55,115-131.08,100.1-59.8-14.97-88.7-71.47-71.55-139.97,17.84-71.23,73.37-110.56,134.27-95.31,55.66,13.94,83.39,65.79,69.46,130.76Zm-49.57-5.53c7.31-36.2-6.54-63.93-35.47-71.18-31.42-7.87-61.12,13.67-70.5,51.16-9.39,37.49,5.05,67.54,35.91,75.27,31.42,7.87,59.76-12.92,69.31-51.09.34-1.36.68-2.73.75-4.16Z"/>
        <path class="cls-2" d="m579.56,284.23l-29.15,237.12h-60.08l29.15-237.12h60.08Z"/>
        <polygon class="cls-2" points="628.28 284.23 599.13 521.34 657.02 521.34 675.2 358.13 771.81 521.34 831.03 521.34 862.19 284.23 802.12 284.23 784.69 444.91 692.98 284.23 628.28 284.23"/>
      </g>
      <g>
        <path class="cls-2" d="m903.29,481.06c10.49,0,19,8.51,19,19s-8.51,19-19,19-19-8.51-19-19,8.51-19,19-19m0-2.84c-12.04,0-21.83,9.79-21.83,21.83s9.79,21.83,21.83,21.83,21.83-9.79,21.83-21.83-9.79-21.83-21.83-21.83h0Z"/>
        <path class="cls-2" d="m903.04,486.16c3.32,0,5.4,1.1,6.65,2.27,1.1,1.06,2.27,2.93,2.27,5.83,0,1.64-.35,3.68-2.03,5.32-.9.86-2.19,1.64-3.64,1.99l8.02,10.68h-7.35l-7.04-10.29v10.29h-6.02v-26.09h9.15Zm-3.13,11.85h1.37c1.1,0,2.58-.12,3.6-1.13.43-.43.98-1.25.98-2.54,0-1.49-.7-2.27-1.21-2.66-.98-.74-2.54-.82-3.32-.82h-1.41v7.16Z"/>
      </g>
    </g>
  </g>
</svg>